<svg width="375" height="341" viewBox="0 0 375 341" fill="none" xmlns="http://www.w3.org/2000/svg">
<path d="M286.819 71.095C275.51 14.238 218.01 50.5454 187.507 0C156.99 50.5454 99.4897 14.238 88.1814 71.095C40.6475 79.4329 16.2783 122.093 0 170.407C16.2783 218.721 40.6475 261.381 88.1814 269.719C99.4897 326.575 156.99 290.268 187.507 340.814C218.01 290.268 275.51 326.575 286.819 269.719C334.352 261.381 358.722 218.721 375 170.407C358.722 122.093 334.352 79.4329 286.819 71.095ZM313.155 94.3102C318.141 97.6612 322.854 101.691 327.32 106.42L323.372 108.698C322.091 105.175 320.202 99.9706 320.202 99.9706C318 99.7631 316.434 99.5593 311.531 98.7684C312.16 97.0439 312.705 95.5488 313.155 94.3102ZM225.104 276.7L214.037 272.676L207.958 279.919C207.958 278.736 207.958 271.649 207.958 270.465L197.405 266.622L208.004 263.784V247.085L216.349 261.54L216.385 261.53L216.39 261.538L216.392 261.538L225.252 259.162L218.738 265.674L225.104 276.7ZM71.4717 237.358C74.6863 228.522 73.3869 232.093 79.1959 216.13C79.9468 215.693 78.5158 216.519 89.8799 209.963L101.72 219.893L104.402 235.112C101.931 236.539 98.1205 238.738 93.7071 241.284C90.0917 240.646 74.2881 237.856 71.474 237.359L71.4717 237.358ZM149.768 64.0854L160.872 68.1231L166.95 60.8797C166.95 62.0631 166.95 69.1505 166.95 70.3338L177.485 74.1703L166.905 77.0036V93.7024L158.56 79.2474L158.558 79.2477L158.522 79.2569L158.517 79.2487L149.585 81.6447L156.129 75.103L149.768 64.0854ZM187.455 129.299L172.955 104.182V81.6113L187.34 77.7596L187.479 77.8102L187.595 77.7676L201.954 81.6128V104.183L187.455 129.299ZM201.954 116.271V138.303L194.978 142.329L190.944 135.343L201.954 116.271ZM183.965 135.344L179.933 142.328L172.955 138.301V116.272L183.965 135.344ZM155.625 86.254L166.905 105.793V134.809L141.792 120.311L130.508 100.765L141.141 90.1383L155.625 86.254ZM99.1212 209.874L90.5185 202.66L82.3932 207.348C84.5448 201.441 84.7923 200.75 85.6199 198.459L76.6381 190.921H89.3091L91.6753 182.085L94.042 190.923H110.817L96.2879 199.311L99.1212 209.874ZM82.3232 133.386C85.9069 135.453 87.3989 136.316 90.5587 138.14L99.1058 130.972L96.2879 141.478L110.814 149.864C108.715 149.864 96.1635 149.864 94.083 149.864L94.0825 149.866H94.042L91.6757 158.702L89.3091 149.864H76.6127L85.5823 142.337L82.3232 133.386ZM84.6992 155.871L88.5665 170.314L88.5447 170.395L88.566 170.473L84.6992 184.914H69.4808L68.8867 184.415H68.8366L52.1224 170.393L68.8209 156.383H68.845L69.4549 155.871H84.6992ZM98.6952 184.915L94.8068 170.393L98.6948 155.873H121.221L146.376 170.395L121.225 184.915H98.6952ZM152.403 173.874L159.386 177.907L155.342 184.915H133.279L152.403 173.874ZM133.282 155.873H155.341L159.386 162.883L152.407 166.913L133.282 155.873ZM158.853 149.864L147.821 130.754L166.905 141.771V149.864C166.072 149.864 160.311 149.864 158.853 149.864ZM151.873 149.864H122.874L103.327 138.58L107.184 124.197L107.297 124.103L107.323 123.957L117.832 113.442L137.352 124.711L151.873 149.864ZM101.761 120.906L89.921 130.836C87.4313 129.398 83.5849 127.178 79.1278 124.609L71.4227 103.44C71.439 103.437 93.7166 99.5072 93.7331 99.5072L104.443 105.689L101.761 120.906ZM74.2312 128.719L78.4991 140.439L67.2679 149.864H67.2451L66.6368 150.375L51.2056 150.369C50.2269 147.678 48.7142 143.527 46.9589 138.714C48.1709 135.383 53.714 120.153 54.7002 117.444L54.702 117.441C60.7351 120.923 70.5477 126.59 74.2312 128.719ZM46.994 156.374L59.4796 156.379L47.4499 166.471L43.7553 163.37L40.0605 166.471L28.0357 156.379L40.5348 156.374L43.7655 147.492C45.9172 153.397 46.1305 153.99 46.994 156.374ZM43.7553 177.415L47.4499 174.314L59.4957 184.419L47.039 184.425L43.8083 193.307C41.737 187.624 41.3045 186.427 40.5787 184.425L28.0194 184.419L40.0605 174.314L43.7553 177.415ZM47.0082 202.082L51.2464 190.43L66.6526 190.424L67.2451 190.921H67.2935L78.5434 200.362C77.5651 203.055 76.0512 207.209 74.2941 212.026L73.7405 212.348C62.623 218.767 66.8998 216.298 54.7347 223.32C49.8962 210.03 47.8604 204.428 47.0075 202.084L47.0082 202.082ZM103.327 202.206L122.871 190.923H151.874L137.352 216.078L117.834 227.346L107.27 216.776L107.256 216.696L107.201 216.65L103.327 202.206ZM141.792 220.474L166.905 205.976V234.996L155.627 254.532L141.141 250.647L130.508 240.02L141.792 220.474ZM147.818 210.036L158.852 190.923H166.905V199.017L147.818 210.036ZM162.32 184.915L167.633 175.705L158.433 170.393L167.634 165.08L162.321 155.873H172.912V155.871C172.928 155.871 172.939 155.871 172.955 155.871V145.263L182.12 150.551L182.131 150.533L182.161 150.55H182.163L187.454 141.387L192.746 150.551L192.777 150.533L192.787 150.55L192.788 150.549L201.954 145.261V155.873H212.59L207.276 165.082L216.477 170.395L207.276 175.707L212.589 184.915C211.253 184.915 203.288 184.915 201.995 184.915V184.916H201.954V195.525L192.789 190.236H192.787L192.776 190.255L192.746 190.237L187.455 199.4L182.163 190.236L182.162 190.237L182.13 190.254L182.12 190.237L172.955 195.526V184.915C171.611 184.915 163.609 184.915 162.32 184.915ZM303.437 103.441C299.525 114.192 301.419 108.989 295.713 124.668C294.962 125.106 296.391 124.28 285.029 130.836L273.189 120.906L270.507 105.687C272.977 104.26 276.788 102.061 281.202 99.5146C284.817 100.153 300.62 102.943 303.435 103.44L303.437 103.441ZM292.585 207.413C288.822 205.242 287.458 204.453 284.35 202.659L275.799 209.83L278.621 199.309L264.095 190.923H280.824L280.825 190.921C280.841 190.921 280.851 190.921 280.867 190.921L283.254 182.008L285.641 190.921H298.312L289.326 198.462L292.585 207.413ZM215.523 177.905L222.502 173.874L241.627 184.915H219.568L215.523 177.905ZM227.089 210.033L208.004 199.016V190.923C208.838 190.923 214.598 190.923 216.056 190.923L227.089 210.033ZM215.523 162.88L219.567 155.873H241.631L222.507 166.913L215.523 162.88ZM228.534 170.393L253.685 155.873H276.214L280.103 170.395L276.215 184.915H253.688L228.534 170.393ZM290.251 184.914L286.363 170.397L286.364 170.393L286.363 170.388L290.251 155.871H305.412L306.022 156.383H306.031L322.724 170.393L305.421 184.914H290.251ZM285.641 149.864L283.254 158.777L280.867 149.864C278.767 149.864 266.192 149.864 264.092 149.864L278.621 141.477L275.792 130.929L284.39 138.14L292.515 133.451C290.365 139.354 290.086 140.133 289.289 142.34L298.254 149.864H285.641ZM271.582 138.582L252.039 149.864H223.035L237.557 124.708L257.075 113.441L267.636 124.008L267.652 124.103L267.713 124.153L271.582 138.582ZM233.117 120.313L208.004 134.811V105.792L219.283 86.2555L233.768 90.1398L244.401 100.767L233.117 120.313ZM227.092 130.75L216.057 149.864C215.225 149.864 209.462 149.864 208.004 149.864V141.77L227.092 130.75ZM201.954 202.486V224.515L190.944 205.443L194.976 198.459L201.954 202.486ZM183.965 205.444L172.955 224.517V202.485L179.931 198.458L183.965 205.444ZM172.955 236.604L187.454 211.488L201.954 236.606V259.176L187.55 263.033L187.429 262.989L187.332 263.024L172.955 259.174V236.604ZM219.284 254.533L208.004 234.994V205.978L233.117 220.475L244.401 240.022L233.768 250.649L219.284 254.533ZM223.036 190.923H252.036L271.582 202.207L267.721 216.605L267.611 216.696L267.588 216.829L257.077 227.346L237.557 216.077L223.036 190.923ZM273.147 219.893L284.987 209.963C287.477 211.401 291.324 213.621 295.78 216.19C298.593 223.918 297.128 219.893 303.485 237.359C295.991 238.683 288.503 240.001 281.177 241.293L281.176 241.292L270.466 235.11L273.147 219.893ZM300.677 212.08L296.409 200.36L308.249 190.424L323.702 190.43C324.681 193.121 326.194 197.273 327.95 202.085L320.208 223.355L320.206 223.357C315.247 220.496 306.435 215.407 300.677 212.08ZM327.913 184.425L315.354 184.419L327.395 174.314L331.09 177.415L334.785 174.314L346.83 184.419L334.374 184.425L331.143 193.307C329.072 187.624 328.639 186.427 327.913 184.425ZM331.09 163.37L327.395 166.471L315.371 156.379L327.87 156.374L331.1 147.492C333.252 153.397 333.465 153.99 334.329 156.374L346.814 156.379L334.785 166.471L331.09 163.37ZM327.9 138.717L323.662 150.369L308.216 150.375L307.608 149.864H307.599L296.365 140.437C297.343 137.744 298.858 133.589 300.614 128.772C301.365 128.336 299.077 129.657 320.174 117.479C326.188 134 326.774 135.619 327.901 138.715L327.9 138.717ZM315.867 105.631C316.277 106.765 316.806 108.215 318.088 111.746L318.086 111.747L303.808 119.99L309.444 104.5L315.867 105.631ZM306.861 90.5212L307.755 91.5859C307.122 93.3244 306.365 95.4024 305.524 97.7092L289.29 94.8426C291.69 93.4571 298.007 89.811 301.38 87.8645C303.243 88.6671 305.067 89.5599 306.861 90.5212ZM275.036 73.4385C276.003 78.3018 279.859 82.0715 284.743 82.9279C287.93 83.487 291.018 84.2455 294.028 85.1716C288.676 88.2605 285.376 90.1652 280.091 93.2187L267.862 91.0637L265.313 76.6299L265.319 76.6186L265.181 75.8337L272.164 63.7496C273.275 66.3695 274.261 69.5453 275.036 73.4385ZM261.018 51.1102C264.089 52.8092 266.594 54.8182 268.737 57.6742L263.558 66.6365L260.831 51.1783L261.018 51.1102ZM262.678 96.2494L271.995 97.8915C266.065 101.315 265.774 101.484 263.862 102.591L265.808 113.637L258.093 105.917L258.092 105.918L258.064 105.933L258.05 105.919L243.583 114.272L251.951 99.7756L245.425 93.2529L254.335 95.6422L260.641 84.72L262.678 96.2494ZM258.885 74.7232L258.878 74.7349L259.017 75.5199L251.438 88.6469L236.921 84.7541L236.917 84.7526L226.286 74.1248L233.871 60.987L255.099 53.2637L258.885 74.7232ZM243.473 45.2944C246.778 46.044 249.893 46.8144 252.779 47.7155L239.235 52.6437L243.473 45.2944ZM208.007 34.7574C217.945 39.5811 228.119 41.9228 237.323 43.937L230.505 55.759L215.977 61.0414L208.007 51.5428C208.007 49.5854 208.007 40.8772 208.007 34.7574ZM208.007 60.8873L214.079 68.1231L225.137 64.102L218.779 75.1133L225.306 81.6382L216.392 79.2474H216.39L216.384 79.258L216.349 79.2487L208.004 93.7038V77.0021L197.455 74.177L208.007 70.3338C208.007 69.1581 208.007 62.0727 208.007 60.8873ZM195.399 26.9703C197.565 28.6469 199.77 30.1448 202 31.4929C202 35.9676 202 42.8808 202 44.3788C199.385 41.2599 194.031 34.8762 191.394 31.739L195.399 26.9703ZM187.505 19.8264C188.593 20.9734 189.698 22.0559 190.815 23.0883L187.474 27.0659C186.219 25.5678 185.627 24.8614 184.164 23.1166C185.292 22.0754 186.407 20.984 187.505 19.8264ZM172.957 31.5237C175.194 30.1741 177.405 28.6744 179.577 26.9952C180.409 27.9866 183.427 31.5875 183.551 31.7368L183.548 31.7405L183.55 31.7419L172.957 44.3729V31.5237ZM172.957 53.7212C178.369 47.2679 175.073 51.1978 187.473 36.4112C191.844 41.6149 197.586 48.462 202 53.7286V66.1294L187.479 71.4176L172.957 66.1294C172.957 65.0427 172.957 55.9973 172.957 53.7212ZM166.95 34.7823V51.5354L158.973 61.0414L144.445 55.759L137.633 43.9474C146.836 41.9338 157.01 39.5979 166.95 34.7823ZM131.482 45.3046L135.718 52.6493L122.189 47.7261C125.071 46.8246 128.181 46.054 131.482 45.3046ZM119.809 53.2526L141.037 60.976L148.622 74.1146L137.99 84.7423L123.47 88.636L115.885 75.4974L119.809 53.2526ZM120.573 95.6312L129.502 93.2367L122.958 99.777L131.323 114.268L116.859 105.917H116.857L116.84 105.934L116.816 105.919L109.149 113.591L111.088 102.588L102.936 97.8835L112.189 96.2509L114.237 84.657L120.573 95.6312ZM113.957 51.1237L114.078 51.1677L111.339 66.6889L106.188 57.7754C108.31 54.9164 110.805 52.872 113.957 51.1237ZM90.2569 82.9279C95.1411 82.0715 98.997 78.3018 99.9642 73.4385C100.725 69.6113 101.691 66.4762 102.779 63.8824L109.693 75.845L107.005 91.0645L94.8419 93.2115L80.9379 85.182C83.9585 84.2507 87.0581 83.4892 90.2569 82.9279ZM67.8985 90.648C69.7604 89.6413 71.655 88.7111 73.5911 87.876C76.4268 89.5133 76.497 89.5539 85.6378 94.8328C80.1479 95.7999 74.4455 96.8052 69.3379 97.7078L67.112 91.5852C67.2398 91.433 67.5292 91.0883 67.8985 90.648ZM65.416 104.502C70.7514 119.16 69.4801 115.665 71.0342 119.935C70.0922 119.391 61.2055 114.259 56.7867 111.709L58.9971 105.629C60.82 105.307 62.9977 104.924 65.4149 104.499L65.416 104.502ZM61.737 94.381L63.331 98.7667C58.8607 99.5504 56.3001 100.006 54.5363 100.32L51.5043 108.657C49.9388 107.753 48.6831 107.027 47.6622 106.438C52.1015 101.736 56.7843 97.7221 61.737 94.381ZM43.2035 111.498L43.8076 111.15C45.4048 112.071 47.3079 113.17 49.4191 114.39C45.9666 123.876 46.7826 121.635 43.7629 129.931C42.4364 126.284 40.5765 121.174 39.0142 116.882C41.4774 113.511 42.4385 112.424 43.2035 111.498ZM34.8355 122.964C39.0063 134.422 39.5794 136.003 40.5663 138.715L40.5656 138.717L36.3274 150.369L20.8812 150.375L20.5756 150.118C25.0539 139.773 29.7894 130.761 34.8355 122.964ZM12.7003 170.407C14.4731 165.328 16.2882 160.514 18.1447 155.928L18.6871 156.383H18.6964L35.3888 170.393L18.1383 184.87C16.284 180.289 14.471 175.48 12.7003 170.407ZM20.5794 190.704L20.9141 190.424L36.3678 190.43C37.3468 193.121 38.8599 197.273 40.6149 202.085L34.8622 217.891C29.8072 210.087 25.0644 201.064 20.5794 190.704ZM43.2167 229.332C42.4422 228.395 41.4796 227.304 39.0419 223.97L43.8105 210.868C45.7114 216.093 47.6843 221.513 49.4522 226.369L43.7665 229.649C43.5914 229.548 43.3989 229.437 43.2167 229.332ZM61.7666 246.452C56.794 243.101 52.0933 239.074 47.6382 234.35L51.5368 232.101C52.802 235.583 54.685 240.769 54.7062 240.828C57.0806 240.828 55.3627 240.618 63.3774 242.03C63.3774 242.03 62.7013 243.884 61.7666 246.452ZM59.0416 235.167C58.5544 233.822 58.4398 233.51 56.8207 229.052L56.8221 229.052L71.1006 220.809L65.4641 236.299L59.0416 235.167ZM67.9967 250.218L67.154 249.213C67.7868 247.475 68.5439 245.397 69.3846 243.09L85.6189 245.956C79.9851 249.209 78.8038 249.889 73.5505 252.921C71.6622 252.105 69.8145 251.197 67.9967 250.218ZM99.9642 267.375C98.997 262.512 95.1409 258.742 90.2569 257.886C87.0427 257.322 83.9285 256.556 80.8943 255.619C84.5359 253.518 89.1797 250.838 94.8176 247.58L107.047 249.735L109.605 264.222L109.581 264.264L109.71 264.995L102.794 276.965C101.699 274.364 100.729 271.219 99.9642 267.375ZM114.022 289.727C110.846 287.974 108.336 285.925 106.207 283.064L111.332 274.195L114.066 289.711L114.022 289.727ZM112.231 244.55L102.913 242.907C108.806 239.506 109.178 239.29 111.047 238.208L109.098 227.146L116.816 234.869L116.843 234.854L116.857 234.868L116.858 234.867L131.327 226.516L122.958 241.012L129.485 247.535L120.613 245.156L114.276 256.132L112.231 244.55ZM116.005 266.107L116.03 266.063L115.901 265.331L123.51 252.151L137.989 256.034L138.031 256.045L148.663 266.673L141.043 279.87L140.293 280.143L140.278 280.169L119.798 287.625L116.005 266.107ZM131.438 295.499C128.187 294.761 125.121 294.001 122.276 293.115L135.612 288.26L131.438 295.499ZM166.901 306.009C156.96 301.201 146.788 298.869 137.588 296.857L144.388 285.065L145.137 284.792L145.152 284.767L158.932 279.758L166.901 289.256C166.901 291.209 166.901 299.89 166.901 306.009ZM166.901 279.911L160.83 272.676L149.822 276.678L156.17 265.684L149.643 259.16L158.517 261.54L158.523 261.529L158.558 261.538H158.56L166.905 247.083V263.785L177.473 266.615L166.901 270.465C166.901 271.647 166.901 278.728 166.901 279.911ZM179.54 313.791C177.364 312.111 175.149 310.611 172.908 309.261V296.42C176.483 300.684 180.183 305.094 183.515 309.059L179.54 313.791ZM187.505 320.988C186.396 319.819 185.27 318.717 184.13 317.667L187.434 313.733C188.055 314.474 189.475 316.168 190.796 317.743C189.685 318.771 188.586 319.847 187.505 320.988ZM201.951 309.35C199.731 310.695 197.535 312.189 195.378 313.86C194.221 312.479 192.862 310.858 191.357 309.061L191.36 309.058L191.359 309.056C196.974 302.361 194.666 305.113 201.951 296.426V309.35ZM201.951 287.078C196.278 293.843 200.236 289.123 187.435 304.387C183.508 299.714 176.851 291.774 172.908 287.07C172.908 286.053 172.908 276.931 172.908 274.67L187.429 269.381L201.951 274.67C201.951 275.756 201.951 284.801 201.951 287.078ZM207.958 306.081V289.264L215.935 279.758L230.463 285.039L237.293 296.883C228.081 298.9 217.901 301.246 207.958 306.081ZM243.445 295.526L239.236 288.228L252.69 293.126C249.821 294.018 246.726 294.782 243.445 295.526ZM255.11 287.615L233.879 279.885L226.245 266.663L236.863 256.047L236.92 256.032L236.934 256.018L251.397 252.14L259.031 265.364L255.11 287.615ZM254.294 245.145L245.438 247.52L251.951 241.01L243.585 226.518L258.05 234.869L258.066 234.853L258.091 234.868H258.093L265.762 227.195L263.82 238.211L271.973 242.916L262.719 244.548L260.665 256.18L254.294 245.145ZM260.953 289.741L260.842 289.7L263.585 274.137L268.765 283.102C266.627 285.964 264.107 288.004 260.953 289.741ZM284.743 257.886C279.859 258.742 276.003 262.512 275.036 267.375C274.266 271.244 273.288 274.404 272.185 277.014L265.215 264.953L267.903 249.734L280.066 247.588C286.026 251.029 287.219 251.718 294.019 255.645C291.012 256.569 287.927 257.327 284.743 257.886ZM306.915 250.265C305.1 251.238 303.256 252.141 301.371 252.953L289.271 245.966C291.671 245.543 299.856 244.101 305.571 243.091C305.862 243.891 307.452 248.267 307.796 249.214C307.649 249.389 307.33 249.769 306.915 250.265ZM309.492 236.297L303.875 220.864C308.271 223.404 313.531 226.441 318.122 229.09L315.911 235.169C314.436 235.431 310.986 236.037 309.493 236.3L309.492 236.297ZM313.193 246.478L311.577 242.032C316.497 241.167 318.236 240.858 320.372 240.479L323.404 232.141C325.052 233.093 326.259 233.791 327.315 234.4C322.862 239.114 318.163 243.134 313.193 246.478ZM331.903 229.187L331.101 229.649C329.504 228.727 327.6 227.628 325.489 226.408L331.145 210.868C332.744 215.263 334.392 219.792 335.928 224.011C333.494 227.336 332.585 228.359 331.903 229.187ZM340.109 217.935C336.658 208.454 335.069 204.083 334.342 202.084L334.343 202.082L338.581 190.43L353.987 190.424L354.394 190.765C349.909 201.119 345.165 210.136 340.109 217.935ZM356.18 156.383L356.79 155.871H356.832C358.697 160.474 360.52 165.307 362.3 170.407C360.523 175.496 358.704 180.32 356.844 184.914H356.815L356.221 184.415H356.171L339.457 170.393L356.156 156.383H356.18ZM354.385 150.027L353.972 150.375L338.54 150.369C337.562 147.678 336.049 143.527 334.294 138.714C335.131 136.413 338.035 128.435 340.075 122.827C345.141 130.632 349.892 139.659 354.385 150.027ZM331.098 129.931C329.507 125.557 327.148 119.076 325.456 114.43L331.142 111.15C331.365 111.278 331.607 111.418 331.842 111.553C332.57 112.436 333.479 113.46 335.893 116.754C333.42 123.55 333.836 122.408 331.098 129.931Z" fill="#F8F6F0"/>
</svg>
